<svg height="512" viewBox="0 0 64 64" width="512" xmlns="http://www.w3.org/2000/svg"><path d="m3 37h58v4h-58z" fill="#d3843d"/><path d="m5 41h54v20h-54z" fill="#ad6327"/><g fill="#f9bb4b"><path d="m8 44h2v2h-2z"/><path d="m54 44h2v2h-2z"/><path d="m8 56h2v2h-2z"/><path d="m54 56h2v2h-2z"/></g><path d="m13 45h38v8h-38z" fill="#d3843d"/><path d="m15 3h14a0 0 0 0 1 0 0v20a0 0 0 0 1 0 0h-12a2 2 0 0 1 -2-2v-18a0 0 0 0 1 0 0z" fill="#ffd782" transform="matrix(-1 0 0 -1 44 26)"/><path d="m15 23h14v14h-14z" fill="#db527d" transform="matrix(-1 0 0 -1 44 60)"/><path d="m24 12h2v2h-2z" fill="#394d5c"/><path d="m18 12h2v2h-2z" fill="#394d5c"/><path d="m22 20a1 1 0 0 1 -.555-.168l-3-2a1 1 0 0 1 1.11-1.664l2.445 1.632 2.445-1.63a1 1 0 1 1 1.11 1.664l-3 2a1 1 0 0 1 -.555.166z" fill="#394d5c"/><path d="m29 23h4a0 0 0 0 1 0 0v14a0 0 0 0 1 0 0h-2a2 2 0 0 1 -2-2v-12a0 0 0 0 1 0 0z" fill="#eb8cb3" transform="matrix(-1 0 0 -1 62 60)"/><path d="m13 23h2a0 0 0 0 1 0 0v14a0 0 0 0 1 0 0h-4a0 0 0 0 1 0 0v-12a2 2 0 0 1 2-2z" fill="#eb8cb3"/><path d="m21 30h2v7h-2z" fill="#ad4268"/><path d="m29 9a4.447 4.447 0 0 1 -5-2s-2 4-9 2v-6h12a2 2 0 0 1 2 2z" fill="#394d5c"/><path d="m15 3a0 0 0 0 1 0 0v9a5 5 0 0 1 -5 5h-1a0 0 0 0 1 0 0v-8a6 6 0 0 1 6-6z" fill="#5a6470" transform="matrix(-1 0 0 -1 24 20)"/><rect fill="#5a6470" height="12" rx="2" transform="matrix(-1 0 0 -1 92 54)" width="18" x="37" y="21"/><path d="m42 37h8l-2-8h-4z" fill="#7d8d9c"/><path d="m51 13h-11l-7 3 2-4v-7h16z" fill="#fcf05a"/><path d="m46 8h2v2h-2z" fill="#394d5c"/><path d="m42 8h2v2h-2z" fill="#394d5c"/><path d="m38 8h2v2h-2z" fill="#394d5c"/><path d="m25 23-3 9-3-9z" fill="#f4f4e6"/><path d="m25 23h4v3l-7 6z" fill="#edabc9"/><path d="m19 23h-4v3l7 6z" fill="#edabc9"/></svg>